HIERARCHY
ROOT Hips
{
	OFFSET 0.000000 0.000000 0.000000
	CHANNELS 6 Xposition Yposition Zposition Zrotation Yrotation Xrotation 
	JOINT LHipJoint
	{
		OFFSET 0.000000 0.000000 0.000000
		CHANNELS 3 Zrotation Yrotation Xrotation
		JOINT LeftUpLeg
		{
			OFFSET 1.363060 -1.794630 0.839290
			CHANNELS 3 Zrotation Yrotation Xrotation
			JOINT LeftLeg
			{
				OFFSET 2.448110 -6.726130 0.000000
				CHANNELS 3 Zrotation Yrotation Xrotation
				JOINT LeftFoot
				{
					OFFSET 2.562200 -7.039590 0.000000
					CHANNELS 3 Zrotation Yrotation Xrotation
					JOINT LeftToeBase
					{
						OFFSET 0.157640 -0.433110 2.322550
						CHANNELS 3 Zrotation Yrotation Xrotation
						End Site
						{
							OFFSET 0.000000 0.000000 0.000000
						}
					}
				}
			}
		}
	}
	JOINT RHipJoint
	{
		OFFSET 0.000000 0.000000 0.000000
		CHANNELS 3 Zrotation Yrotation Xrotation
		JOINT RightUpLeg
		{
			OFFSET -1.305520 -1.794630 0.839290
			CHANNELS 3 Zrotation Yrotation Xrotation
			JOINT RightLeg
			{
				OFFSET -2.542530 -6.985550 0.000000
				CHANNELS 3 Zrotation Yrotation Xrotation
				JOINT RightFoot
				{
					OFFSET -2.568260 -7.056230 0.000000
					CHANNELS 3 Zrotation Yrotation Xrotation
					JOINT RightToeBase
					{
						OFFSET -0.164730 -0.452590 2.363150
						CHANNELS 3 Zrotation Yrotation Xrotation
						End Site
						{
							OFFSET 0.000000 0.000000 0.000000
						}
					}
				}
			}
		}
	}
}
MOTION
Frames: 17
Frame Time: 0.008333
10.110561 20.891946 0.781907 29.973046 -85.419745 -5.787944 -11.029830 2.364187 3.221512 -7.485560 0.256599 -29.865671 -0.344181 0.684069 21.062516 1.644740 8.288497 31.907943 4.821800 0.000000 -58.063200 10.567271 -1.927656 1.523314 5.420082 -7.865196 -26.820454 1.855181 -0.631438 12.213449 -0.047587 -0.697342 21.500203 -0.813300 -0.000000 -84.334800
9.979282 20.976685 0.773387 29.778984 -85.363778 -5.395767 -11.006404 2.277580 3.134967 -7.893655 0.363248 -30.493648 -0.440310 0.669784 20.299328 1.588556 8.188906 31.740268 4.787000 0.000000 -57.981800 10.501683 -1.848521 1.534097 5.647856 -7.940150 -27.402727 2.029477 -0.500525 10.868597 -0.011458 -0.802072 21.055324 -0.907799 -0.000000 -84.174000
9.848447 21.050294 0.764942 29.644310 -85.319154 -5.071414 -10.980995 2.193821 3.055169 -8.305702 0.453537 -31.080233 -0.544831 0.647014 19.418325 1.531594 8.141782 31.530126 4.785300 0.000000 -57.889400 10.433427 -1.768303 1.546447 5.892266 -8.031398 -27.997187 2.201694 -0.361984 9.549541 0.015848 -0.947387 20.571737 -1.019200 -0.000001 -83.997400
9.717969 21.112795 0.756633 29.542407 -85.279840 -4.792080 -10.952598 2.113161 2.983601 -8.721272 0.524081 -31.633984 -0.659011 0.616252 18.450406 1.472083 8.133561 31.232449 4.804000 -0.000000 -57.781900 10.363804 -1.687077 1.557600 6.152318 -8.149050 -28.607435 2.371227 -0.219594 8.279959 0.039025 -1.088911 20.066075 -1.124500 -0.000000 -83.737300
9.587603 21.163677 0.748551 29.420627 -85.239814 -4.506276 -10.921059 2.035941 2.919664 -9.141797 0.585831 -32.170189 -0.784957 0.578722 17.435460 1.406727 8.126546 30.809892 4.815499 0.000000 -57.565100 10.293971 -1.606022 1.564461 6.430732 -8.305654 -29.238108 2.538492 -0.078071 7.083265 0.063803 -1.180712 19.566505 -1.201100 0.000001 -83.305900
9.457299 21.203095 0.740662 29.276120 -85.192983 -4.211323 -10.885221 1.961873 2.866173 -9.567727 0.628819 -32.694687 -0.921718 0.533707 16.383362 1.337073 8.114517 30.295344 4.818200 0.000001 -57.409500 10.226737 -1.525386 1.564833 6.724943 -8.507436 -29.891368 2.701795 0.058802 5.954834 0.092623 -1.207172 19.150141 -1.242900 0.000000 -82.914700
9.326953 21.230844 0.732933 29.089916 -85.134628 -3.886220 -10.845026 1.890859 2.823643 -10.000337 0.655937 -33.218176 -1.068698 0.481614 15.310169 1.263157 8.074202 29.728421 4.800500 0.000000 -57.344000 10.164197 -1.446054 1.557264 7.034438 -8.757556 -30.571329 2.860310 0.186846 4.897230 0.128229 -1.155703 18.877731 -1.245700 -0.000000 -82.609100
9.196462 21.247060 0.725380 28.807600 -85.062285 -3.476245 -10.801609 1.823135 2.787342 -10.446725 0.696387 -33.763554 -1.227454 0.425518 14.254522 1.180803 7.946154 29.129461 4.727700 -0.000000 -57.112000 10.107002 -1.369953 1.541554 7.363547 -9.055587 -31.280830 3.014586 0.302358 3.919106 0.173189 -1.017145 18.782521 -1.206100 -0.000000 -82.239500
9.065811 21.252024 0.717838 28.474252 -84.974149 -3.021091 -10.754988 1.758376 2.759651 -10.906486 0.734003 -34.329859 -1.393685 0.365252 13.203825 1.094278 7.748892 28.597272 4.620500 0.000000 -57.015200 10.057135 -1.296425 1.519092 7.704742 -9.389829 -32.021781 3.161864 0.403914 3.005962 0.224728 -0.817268 18.914880 -1.136301 0.000000 -82.069000
8.934990 21.245690 0.710141 28.109095 -84.870418 -2.535072 -10.706190 1.696617 2.739093 -11.381496 0.770226 -34.922695 -1.565034 0.302715 12.164122 1.004276 7.477691 28.191656 4.481100 -0.000000 -57.070500 10.014796 -1.225226 1.492390 8.052753 -9.744831 -32.794429 3.300605 0.491099 2.153887 0.280086 -0.577845 19.279732 -1.044600 0.000000 -82.101100
8.804145 21.227915 0.702228 27.698706 -84.753384 -2.005544 -10.656726 1.637711 2.719702 -11.877287 0.824902 -35.553649 -1.741325 0.241716 11.162571 0.908134 7.104165 27.927666 4.293000 -0.000000 -57.077700 9.978501 -1.156303 1.463782 8.405516 -10.105282 -33.596075 3.430590 0.564232 1.368729 0.336909 -0.314108 19.842160 -0.935500 -0.000000 -82.188001
8.673346 21.199042 0.693930 27.267278 -84.626441 -1.454939 -10.607389 1.581115 2.698890 -12.393512 0.896621 -36.221313 -1.920361 0.184161 10.206988 0.806744 6.635441 27.822588 4.060400 0.000001 -57.046799 9.946805 -1.088548 1.435985 8.755925 -10.452302 -34.421533 3.550705 0.625146 0.650400 0.391486 -0.049309 20.554223 -0.818100 0.000000 -82.309199
8.542744 21.158664 0.685089 26.850159 -84.493442 -0.923122 -10.558658 1.526290 2.672028 -12.932267 0.989948 -36.916583 -2.101057 0.131730 9.307382 0.700548 6.077163 27.863848 3.783000 0.000001 -56.991700 9.917912 -1.020311 1.408420 9.097434 -10.778261 -35.261489 3.661134 0.675185 0.009715 0.442325 0.209806 21.337499 -0.694900 -0.000000 -82.422800
8.412148 21.106891 0.675603 26.502298 -84.359422 -0.438511 -10.509004 1.469922 2.657387 -13.452489 1.010805 -37.620309 -2.272419 0.077670 8.399272 0.603385 5.559729 28.096015 3.537800 0.000000 -57.368200 9.891322 -0.949099 1.393374 9.405270 -11.026511 -36.118344 3.755735 0.720981 -0.588382 0.479878 0.388496 22.170762 -0.605201 0.000000 -82.720800
8.282172 21.043347 0.665501 26.128195 -84.230243 0.052382 -10.460098 1.413780 2.622968 -14.001466 1.094156 -38.355589 -2.448191 0.033393 7.613210 0.496015 4.912483 28.327806 3.208700 -0.000000 -57.346800 9.862512 -0.877152 1.378103 9.701608 -11.241584 -36.968439 3.844021 0.758509 -1.079102 0.515286 0.566780 22.897365 -0.511500 0.000000 -82.733099
8.152456 20.968198 0.654629 25.846030 -84.108271 0.469326 -10.408579 1.353262 2.603399 -14.507066 1.076002 -39.076369 -2.610737 -0.015480 6.818780 0.402046 4.364094 28.637613 2.936000 0.000000 -57.744100 9.833476 -0.800152 1.374402 9.951265 -11.367546 -37.821936 3.917900 0.793852 -1.508936 0.538996 0.666623 23.538221 -0.457199 0.000000 -82.817800
8.023214 20.880900 0.643158 25.548582 -83.998492 0.889038 -10.355472 1.291301 2.572274 -15.015453 1.079874 -39.818363 -2.772604 -0.058414 6.139708 0.304156 3.761511 28.854885 2.620400 0.000000 -57.976600 9.801151 -0.722576 1.373841 10.178624 -11.442603 -38.664498 3.986068 0.822672 -1.828784 0.561551 0.760230 24.001533 -0.407500 -0.000000 -82.699000
